<?xml version="1.0" encoding="utf-8"?>
<!-- Generator: Adobe Illustrator 21.0.0, SVG Export Plug-In . SVG Version: 6.00 Build 0)  -->
<svg version="1.1" id="图层_1" xmlns="http://www.w3.org/2000/svg" xmlns:xlink="http://www.w3.org/1999/xlink" x="0px" y="0px"
	 viewBox="0 0 35 37" style="enable-background:new 0 0 35 37;" xml:space="preserve">
<style type="text/css">
	.st0{fill:#4F7948;}
</style>
<path class="st0" d="M29.9,27.1c-0.3,0.4-0.7,0.7-1.1,0.9l3,4.6c0.1,0.2,0.1,0.4,0,0.6s-0.3,0.3-0.5,0.3h-4.1l-2,3.3
	c-0.1,0.1-0.3,0.3-0.5,0.3s-0.4-0.1-0.5-0.3l-3.3-5.1c-1,0.2-2.2,0.3-3.3,0.3s-2.2-0.1-3.3-0.3l-3.3,5.1c-0.1,0.2-0.3,0.3-0.5,0.3
	S10,37,9.8,36.8l-2-3.3H3.7c-0.2,0-0.4-0.1-0.5-0.3c-0.1-0.2-0.1-0.4,0-0.6l2.9-4.5c-0.3-0.3-0.6-0.5-0.9-0.8
	c-1.6-1.5-2.9-3.2-3.8-5.1c-0.9-2-1.3-4-1.3-6.2s0.5-4.2,1.3-6.2C2.3,8,3.5,6.3,5.1,4.8s3.5-2.6,5.6-3.5c2.2-0.8,4.4-1.2,6.8-1.2
	c2.4,0,4.6,0.5,6.8,1.2c2.1,0.8,3.9,2,5.6,3.5c1.6,1.5,2.9,3.2,3.8,5.1c0.9,2,1.3,4,1.3,6.2C34.8,20.1,33,24.1,29.9,27.1L29.9,27.1z
	 M24.1,13.9l-4-0.6c-0.2,0-0.3-0.1-0.4-0.3l-1.7-3.5c-0.1-0.2-0.3-0.3-0.6-0.3c-0.2,0-0.5,0.1-0.6,0.3l-1.7,3.5
	c-0.1,0.1-0.2,0.3-0.4,0.3l-4,0.6c-0.2,0-0.4,0.2-0.5,0.4c0,0.2,0,0.4,0.1,0.6l3,2.8c0.1,0.1,0.2,0.3,0.1,0.4l-0.7,3.9
	c0,0.2,0,0.4,0.2,0.6c0.2,0.1,0.5,0.1,0.7,0l3.5-1.8c0.1,0,0.1,0,0.2,0s0.2,0,0.2,0l3.5,1.8c0.2,0.1,0.5,0.1,0.7,0
	c0.2-0.1,0.3-0.3,0.2-0.6L21,18.1c0-0.1,0-0.3,0.1-0.4l3-2.8c0.1-0.1,0.2-0.4,0.1-0.6C24.5,14.1,24.3,13.9,24.1,13.9L24.1,13.9z"/>
</svg>
