<?xml version="1.0" encoding="utf-8"?>
<!-- Generator: Adobe Illustrator 21.0.0, SVG Export Plug-In . SVG Version: 6.00 Build 0)  -->
<svg version="1.1" id="图层_1" xmlns="http://www.w3.org/2000/svg" xmlns:xlink="http://www.w3.org/1999/xlink" x="0px" y="0px"
	 viewBox="0 0 35 37" style="enable-background:new 0 0 35 37;" xml:space="preserve">
<style type="text/css">
	.st0{fill:#8B8B8A;}
</style>
<g>
	<path class="st0" d="M17.5,2.1c2.1,0,4.2,0.4,6.1,1.1c1.9,0.7,3.5,1.7,4.9,3c1.4,1.3,2.5,2.8,3.3,4.5c0.8,1.6,1.2,3.4,1.2,5.4
		c0,3.6-1.5,7-4.3,9.7c-0.2,0.2-0.4,0.4-0.7,0.6l-0.3,0.2l-1.4,1.1l1,1.5l1.5,2.3l-1.6,0l-1.2,0l-0.6,1l-0.9,1.4l-2.1-3.3l-0.7-1.1
		l-1.3,0.2c-1.1,0.2-2.1,0.3-3,0.3c-1,0-2-0.1-2.9-0.3l-1.3-0.2l-0.7,1.1l-2.1,3.2l-0.9-1.4l-0.6-1l-1.1,0l-1.6,0l1.5-2.3l1-1.5
		l-1.4-1.1c-0.3-0.2-0.6-0.5-0.8-0.7c-1.4-1.3-2.5-2.8-3.3-4.5C2.4,19.8,2,18,2,16.1c0-1.9,0.4-3.7,1.2-5.4C4,9,5.1,7.5,6.5,6.2
		c1.4-1.3,3.1-2.3,4.9-3C13.3,2.5,15.3,2.1,17.5,2.1 M13.7,11.6L10.5,12c-0.8,0.1-1.6,0.6-2.1,1.4l-0.1,0.2l-0.1,0.2
		c-0.2,0.9,0,1.9,0.7,2.5l2.4,2.3l-0.5,3c-0.2,1,0.2,2,1.1,2.6c0.4,0.3,1,0.5,1.5,0.5c0.4,0,0.8-0.1,1.2-0.3l0,0l0,0l2.8-1.5
		l2.8,1.5l0,0l0,0c0.4,0.2,0.8,0.3,1.2,0.3c0.6,0,1.1-0.2,1.5-0.5c0.9-0.6,1.3-1.6,1.1-2.5l-0.5-3.1l2.4-2.2c0.7-0.6,1-1.6,0.7-2.5
		c-0.2-0.9-1-1.6-2-1.8l0,0l0,0l-3.3-0.5l-1.4-2.8c-0.4-0.8-1.4-1.4-2.4-1.4c-1,0-1.9,0.5-2.4,1.4L13.7,11.6 M17.5,0.1
		c-2.4,0-4.7,0.4-6.8,1.2c-2.1,0.8-4,2-5.6,3.4C3.5,6.2,2.2,8,1.4,9.8c-0.9,2-1.4,4.1-1.4,6.2c0,2.2,0.4,4.3,1.4,6.2
		c0.9,1.9,2.2,3.6,3.8,5.1c0.3,0.3,0.6,0.5,1,0.8l-2.9,4.5c-0.1,0.2-0.1,0.4,0,0.6c0.1,0.2,0.3,0.3,0.6,0.3l4.1,0l2,3.3
		c0.1,0.2,0.3,0.3,0.6,0.3c0.2,0,0.4-0.1,0.5-0.3l3.3-5.1c1.1,0.2,2.2,0.3,3.3,0.3c1.1,0,2.2-0.1,3.3-0.3l3.3,5.1
		c0.1,0.2,0.3,0.3,0.6,0.3c0.2,0,0.5-0.1,0.6-0.3l2-3.3l4.1,0c0.2,0,0.4-0.1,0.6-0.3c0.1-0.2,0.1-0.4,0-0.6l-2.9-4.6
		c0.4-0.3,0.8-0.6,1.1-0.9v0c3.2-3,5-6.9,4.9-11.1c0-2.2-0.4-4.3-1.4-6.2c-0.9-1.9-2.2-3.6-3.8-5.1c-1.6-1.5-3.5-2.6-5.6-3.4
		C22.2,0.5,19.9,0.1,17.5,0.1L17.5,0.1z M13.4,22.7c-0.1,0-0.3,0-0.4-0.1c-0.2-0.1-0.3-0.3-0.2-0.6l0.7-3.9c0.1-0.1-0.1-0.3-0.1-0.4
		l-3-2.8c-0.1-0.1-0.2-0.4-0.1-0.6c0.1-0.2,0.3-0.4,0.5-0.4l4.1-0.6c0.1,0,0.3-0.1,0.4-0.3l1.8-3.5c0.1-0.2,0.3-0.3,0.6-0.3
		c0.2,0,0.5,0.1,0.6,0.3l1.8,3.5c0.1,0.1,0.2,0.2,0.4,0.3l4.1,0.6h0c0.2,0,0.4,0.2,0.5,0.4c0.1,0.2,0,0.4-0.1,0.6l-3,2.8
		c-0.1,0.1-0.1,0.3-0.1,0.4l0.7,3.9c0,0.2-0.1,0.4-0.2,0.6c-0.1,0.1-0.2,0.1-0.4,0.1c-0.1,0-0.2,0-0.3-0.1l-3.5-1.8
		c-0.1,0-0.2,0-0.2,0c-0.1,0-0.2,0-0.2,0l-3.5,1.8C13.7,22.7,13.5,22.7,13.4,22.7L13.4,22.7z"/>
</g>
</svg>
