<?xml version="1.0" encoding="utf-8"?>
<!-- Generator: Adobe Illustrator 21.0.0, SVG Export Plug-In . SVG Version: 6.00 Build 0)  -->
<svg version="1.1" id="图层_1" xmlns="http://www.w3.org/2000/svg" xmlns:xlink="http://www.w3.org/1999/xlink" x="0px" y="0px"
	 viewBox="0 0 35 37" style="enable-background:new 0 0 35 37;" xml:space="preserve">
<style type="text/css">
	.st0{fill:#4E7648;}
</style>
<path class="st0" d="M17.8,20h-0.1v0.1h0.1c0,0,0.1,0,0.1-0.1S17.9,20,17.8,20z M19,22.2v-11c-0.5-0.1-1-0.3-1.4-0.7
	c0,0,0-0.1-0.1-0.1c0,0,0,0.1-0.1,0.1c-0.4,0.3-0.9,0.5-1.4,0.7v11H0v-9.4C0,11.2,1.3,10,2.9,10h6.8C8.9,9.6,8.2,9.2,7.6,8.6
	C4.9,6.3,4.4,2.9,6.5,1.1C7.4,0.4,8.6,0,9.9,0c1.8,0,3.8,0.7,5.3,2.1c0.9,0.8,1.7,1.8,2.3,2.9c0.6-1.1,1.3-2.1,2.3-2.9
	C21.3,0.7,23.3,0,25.1,0c1.3,0,2.5,0.4,3.4,1.1c2.1,1.8,1.6,5.2-1.1,7.5c-0.6,0.5-1.3,1-2.1,1.4h6.8c1.6,0,2.9,1.2,2.9,2.7v9.4
	L19,22.2L19,22.2z M13.2,4.1c-1-0.8-2.2-1.3-3.3-1.3c-0.3,0-0.9,0-1.3,0.4C8.5,3.2,8.2,3.4,8.2,4c0,0.7,0.4,1.7,1.5,2.6
	c1.3,1.1,3.5,2,5,2c0.5,0,0.7-0.1,0.7-0.1C15.7,8,15,5.7,13.2,4.1z M25.4,6.6c1.1-0.9,1.5-1.9,1.5-2.6c0-0.6-0.3-0.8-0.4-0.9
	c-0.4-0.3-1-0.4-1.3-0.4c-1.1,0-2.4,0.5-3.3,1.3C20,5.6,19.3,8,19.6,8.5h0c0,0,0.2,0.1,0.7,0.1C21.9,8.6,24,7.8,25.4,6.6L25.4,6.6z
	 M16,37H2.9C1.3,37,0,35.8,0,34.3v-9.4h16L16,37L16,37z M35,34.3c0,1.5-1.3,2.7-2.9,2.7H19V24.9h16V34.3z"/>
</svg>
