<?xml version="1.0" encoding="utf-8"?>
<!-- Generator: Adobe Illustrator 21.0.0, SVG Export Plug-In . SVG Version: 6.00 Build 0)  -->
<svg version="1.1" id="图层_1" xmlns="http://www.w3.org/2000/svg" xmlns:xlink="http://www.w3.org/1999/xlink" x="0px" y="0px"
	 viewBox="0 0 35 37" style="enable-background:new 0 0 35 37;" xml:space="preserve">
<style type="text/css">
	.st0{fill:#8A8A8A;}
</style>
<g>
	<path class="st0" d="M32.1,12c0.5,0,0.9,0.4,0.9,0.7v7.4H21V12h4.4H32.1 M14,12v8.1H2v-7.4C2,12.4,2.4,12,2.9,12h6.8H14 M33,26.9
		v7.4c0,0.3-0.4,0.7-0.9,0.7H21v-8.1H33 M14,26.9V35H2.9C2.4,35,2,34.6,2,34.3v-7.4H14 M25.1,0c-1.8,0-3.8,0.7-5.4,2.1
		c-0.9,0.8-1.7,1.8-2.3,2.9c-0.6-1.1-1.3-2.1-2.3-2.9C13.7,0.7,11.7,0,9.9,0C8.6,0,7.4,0.4,6.5,1.1C4.4,2.9,4.9,6.3,7.6,8.6
		c0.6,0.5,1.3,1,2.1,1.4H2.9C1.3,10,0,11.2,0,12.7v9.4h16v-11c0.5-0.1,1-0.3,1.4-0.7c0,0,0-0.1,0.1-0.1c0,0,0,0.1,0.1,0.1
		c0.4,0.3,0.9,0.5,1.4,0.7v11h16v-9.4c0-1.5-1.3-2.7-2.9-2.7h-6.8c0.8-0.4,1.5-0.9,2.1-1.4c2.7-2.3,3.2-5.7,1.1-7.5
		C27.6,0.4,26.4,0,25.1,0L25.1,0z M14.7,8.6c-1.6,0-3.7-0.9-5-2C8.6,5.7,8.2,4.7,8.2,4c0-0.6,0.3-0.8,0.4-0.9c0.4-0.3,1-0.4,1.3-0.4
		c1.1,0,2.4,0.5,3.3,1.3C15,5.7,15.7,8,15.4,8.5C15.4,8.5,15.2,8.6,14.7,8.6L14.7,8.6z M19.6,8.5C19.3,8,20,5.6,21.8,4.1
		c1-0.8,2.2-1.3,3.3-1.3c0.3,0,1,0,1.3,0.4c0.1,0.1,0.4,0.3,0.4,0.9c0,0.7-0.4,1.7-1.5,2.6c-1.3,1.1-3.5,2-5,2
		C19.9,8.6,19.7,8.5,19.6,8.5L19.6,8.5L19.6,8.5z M17.8,20h-0.1v0.1h0.1c0,0,0.1,0,0.1-0.1C17.9,20,17.9,20,17.8,20L17.8,20z
		 M19,22.2L19,22.2L19,22.2L19,22.2z M35,24.9H19V37h13.1c1.6,0,2.9-1.2,2.9-2.7V24.9L35,24.9z M16,24.9H0v9.4C0,35.8,1.3,37,2.9,37
		H16h0V24.9L16,24.9z"/>
</g>
</svg>
