<?xml version="1.0" encoding="utf-8"?>
<!-- Generator: Adobe Illustrator 21.0.0, SVG Export Plug-In . SVG Version: 6.00 Build 0)  -->
<svg version="1.1" id="图层_1" xmlns="http://www.w3.org/2000/svg" xmlns:xlink="http://www.w3.org/1999/xlink" x="0px" y="0px"
	 viewBox="0 0 37 37" style="enable-background:new 0 0 37 37;" xml:space="preserve">
<style type="text/css">
	.st0{fill:#4E7648;}
</style>
<path class="st0" d="M18.5,0C8.3,0,0,7,0,15.8c0,8.5,9.3,14,11.1,15c-0.1,0.9-0.8,3.2-1.5,5c-0.1,0.4,0,0.7,0.2,1
	c0.2,0.2,0.4,0.3,0.6,0.3c0.1,0,0.3,0,0.4-0.1c1.1-0.5,6.3-2.9,7.9-5.4C28.8,31.4,37,24.4,37,15.8C37,7,28.7,0,18.5,0z M22,19.4
	H11.5c-0.5,0-0.9-0.4-0.9-0.9c0-0.5,0.4-0.9,0.9-0.9H22c0.5,0,0.9,0.4,0.9,0.9C22.9,19,22.5,19.4,22,19.4z M25.5,14.1H11.5
	c-0.5,0-0.9-0.4-0.9-0.9c0-0.5,0.4-0.9,0.9-0.9h14.1c0.5,0,0.9,0.4,0.9,0.9S26.1,14.1,25.5,14.1z"/>
</svg>
