<?xml version="1.0" encoding="utf-8"?>
<!-- Generator: Adobe Illustrator 21.0.0, SVG Export Plug-In . SVG Version: 6.00 Build 0)  -->
<svg version="1.1" id="图层_1" xmlns="http://www.w3.org/2000/svg" xmlns:xlink="http://www.w3.org/1999/xlink" x="0px" y="0px"
	 viewBox="0 0 37 37" style="enable-background:new 0 0 37 37;" xml:space="preserve">
<style type="text/css">
	.st0{fill:#8B8B8A;}
</style>
<path class="st0" d="M37,16c0,8.7-8.1,15.8-18.1,16c-0.4,0.4-0.5,0.6-0.7,0.8c-0.1,0.1-0.1,0.1-0.1,0.1c-0.3,0.3-0.7,0.6-1.5,1.4
	c-2.4,1.8-5.7,2.7-8.1,2.7c-0.2,0-0.5-0.1-0.6-0.2c-0.3-0.2-0.4-0.6-0.3-1c0-0.1,0.1-0.3,0.2-0.4c0.1-0.1,0.2-0.3,0.4-0.5
	c0-0.1,0.4-0.4,0.5-0.6c0.2-0.2,0.4-0.5,0.5-0.7c1-1.4,1.4-2.5,1.2-3.6c-0.1-0.5,0.2-1,0.7-1.1c0.5-0.1,1,0.2,1.1,0.7l0,0
	c0.5,1.8-0.2,3.4-1.5,5.2c-0.1,0.1-0.1,0.1-0.2,0.2c1.7-0.3,3.6-1,4.9-2.1c0.8-0.7,1.1-1,1.4-1.3l0.1-0.1c0.2-0.2,0.3-0.3,0.9-1
	c0.2-0.2,0.4-0.3,0.7-0.3c9.2,0,16.6-6.4,16.6-14.1c0-7.8-7.4-14.1-16.7-14.1S1.9,8.2,1.9,16c0,3.8,1.7,7.3,4.8,9.9
	c0.4,0.3,0.4,0.9,0.1,1.3c-0.3,0.4-0.9,0.4-1.3,0.1l0,0C2,24.4,0,20.3,0,16C0,7.1,8.3,0,18.5,0S37,7.1,37,16L37,16z M11.1,12.9
	c0-0.5,0.4-0.9,0.9-0.9H25c0.5,0,0.9,0.4,0.9,0.9c0,0.5-0.4,0.9-0.9,0.9H12C11.5,13.9,11.1,13.5,11.1,12.9z M11.1,18.5
	c0-0.5,0.4-0.9,0.9-0.9h9.2c0.5,0,0.9,0.4,0.9,0.9c0,0.5-0.4,0.9-0.9,0.9H12C11.5,19.4,11.1,19,11.1,18.5
	C11.1,18.5,11.1,18.5,11.1,18.5z"/>
</svg>
