<?xml version="1.0" encoding="utf-8"?>
<!-- Generator: Adobe Illustrator 21.0.0, SVG Export Plug-In . SVG Version: 6.00 Build 0)  -->
<svg version="1.1" id="图层_1" xmlns="http://www.w3.org/2000/svg" xmlns:xlink="http://www.w3.org/1999/xlink" x="0px" y="0px"
	 viewBox="0 0 37 37" style="enable-background:new 0 0 37 37;" xml:space="preserve">
<style type="text/css">
	.st0{fill:#8B8B8A;}
</style>
<g>
	<path class="st0" d="M13.2,2.1c0.1,0,0.3,0,0.4,0c5.5,0.3,10,4.7,10.5,10.5c0.2,2.9-0.7,5.1-2.1,6.6l7.5-7.9
		c-0.6-0.1-1.1-0.6-1.2-1.4c-0.1-0.9,0.2-1.7,1-1.8c0.1,0,0.1-0.1,0.2-0.1c0.2,0,0.3,0.1,0.5,0.2c0.6-1,1.6-1.7,2.6-1.7
		c0.4,0,0.7,0.1,1,0.2c1.3,0.6,1.8,2.7,1.1,4.3c-0.6,1.1-1.6,1.9-2.7,2l-2.7,4.8c-2.4,4.2-3.6,9.2-3.6,14.2c0,1.3-1,2.3-2.2,2.3
		c-5.3,0.1-10.6,0.3-15.8,0.4c-0.8-0.5-2-1.5-2.5-3.1c-0.8-2.7,1-6,4.6-7.9c-4.3-1.4-7.4-4.5-7.8-9.4C1.6,7.8,6.7,2.1,13.2,2.1
		 M17.8,10.7c0.6,0,1.1-0.5,1-1c0-0.5-0.4-1-1-1c-0.5,0-1,0.4-1,1C16.9,10.2,17.2,10.7,17.8,10.7 M6.2,12.7c0.6,0,1-0.5,1-1
		c0-0.5-0.4-1-1-1c-0.5,0-1,0.4-1,1C5.2,12.2,5.6,12.7,6.2,12.7 M12.6,20c0.3,0,0.6,0,0.9-0.1c2.7-0.5,4.6-2.8,4.7-5.4
		c0-0.7-0.5-1.3-1.2-1.3c-0.1,0-0.1,0-0.2,0l-8.4,1.4c-0.9,0.3-1.5,1.3-1,2.2C8.5,18.7,10.5,20,12.6,20 M20.3,21.3l1.3-1.5
		c-0.4,0.4-0.9,0.8-1.3,1.1C20.1,21,20.1,21.2,20.3,21.3 M13.2,0.1l0,2L13.2,0.1c-3.6,0-7,1.5-9.5,4.2C1.1,7.1-0.2,10.8,0,14.7
		c0.3,4.2,2.3,7.6,5.8,9.7c-2.4,2.3-3.4,5.4-2.6,8.1c0.5,1.6,1.7,3.1,3.3,4.2c0.3,0.2,0.7,0.3,1.1,0.3c0,0,0,0,0,0l7.8-0.2l8-0.2
		c0,0,0,0,0,0c2.3,0,4.1-1.9,4.1-4.3c0-4.8,1.2-9.3,3.4-13.2l2.3-4.1c1.3-0.5,2.4-1.5,3.1-2.8c0,0,0-0.1,0.1-0.1
		c1.2-2.7,0.2-5.8-2-6.9c-0.6-0.3-1.2-0.5-1.9-0.5c-1.3,0-2.5,0.5-3.5,1.5c-0.2,0-0.3,0.1-0.5,0.1c-1.6,0.4-2.6,2-2.4,4
		c0.1,0.4,0.2,0.8,0.4,1.2L26,12.1c-0.7-6.6-6-11.7-12.3-12C13.5,0.1,13.3,0.1,13.2,0.1L13.2,0.1z M9.6,16.5l6.4-1.1
		c-0.4,1.2-1.5,2.2-2.9,2.5c-0.2,0-0.3,0-0.5,0C11.4,18,10.3,17.4,9.6,16.5L9.6,16.5z"/>
</g>
</svg>
