<?xml version="1.0" standalone="no"?><!DOCTYPE svg PUBLIC "-//W3C//DTD SVG 1.1//EN" "http://www.w3.org/Graphics/SVG/1.1/DTD/svg11.dtd"><svg t="1535772058277" class="icon" style="" viewBox="0 0 1024 1024" version="1.1" xmlns="http://www.w3.org/2000/svg" p-id="2505" xmlns:xlink="http://www.w3.org/1999/xlink" width="200" height="200"><defs><style type="text/css"></style></defs><path d="M839.554768 846.146668a493.688595 493.688595 0 1 0-319.931201 140.605891l-3.839943-73.022905a420.537692 420.537692 0 1 1 272.507913-119.742204l51.199232 52.159218z" p-id="2506" fill="#ffffff"></path><path d="M453.192563 789.699515v182.845257h73.150903v-182.845257z" p-id="2507" fill="#ffffff"></path><path d="M501.639837 219.468068c-66.303005 0-117.886232 20.223697-154.68568 60.735089-36.799448 38.65542-54.335185 90.238646-54.335185 154.621681h72.766908c0-45.055324 10.111848-80.062799 30.335545-105.854413 22.143668-30.335545 56.191157-45.119323 102.206467-45.119323 38.65542 0 69.054964 10.175847 90.238647 32.255516 20.223697 20.223697 31.295531 48.767268 31.29553 85.630716 0 25.727614-9.215862 49.663255-27.647585 72.702909a408.057879 408.057879 0 0 1-31.295531 33.151503c-49.727254 44.159338-80.062799 79.166812-92.990605 106.750399-11.007835 23.039654-16.575751 49.727254-16.575751 80.126798v21.119683h73.662895v-21.119683c0-24.895627 5.503917-46.975295 17.471738-67.198992 9.215862-16.63975 23.039654-33.151503 43.263351-50.68724 40.511392-35.839462 65.407019-59.775103 74.622881-70.846937 23.039654-30.399544 34.943476-66.303005 34.943475-107.710384 0-55.231172-17.471738-98.494523-51.519227-129.790054-35.903461-33.151503-82.878757-48.767268-141.757873-48.767268z" p-id="2508" fill="#ffffff"></path></svg>