<?xml version="1.0" standalone="no"?><!DOCTYPE svg PUBLIC "-//W3C//DTD SVG 1.1//EN" "http://www.w3.org/Graphics/SVG/1.1/DTD/svg11.dtd"><svg t="1535772160399" class="icon" style="" viewBox="0 0 1228 1024" version="1.1" xmlns="http://www.w3.org/2000/svg" p-id="3247" xmlns:xlink="http://www.w3.org/1999/xlink" width="239.84375" height="200"><defs><style type="text/css"></style></defs><path d="M291.584 61.44c0-11.264-10.9568-20.48-24.32-20.48H170.0864c-13.312 0-24.32 9.216-24.32 20.48v20.48h145.8176v-20.48zM614.4 332.8c-141.3632 0-256 112.6912-256 251.7504 0 139.008 114.6368 251.6992 256 251.6992s256-112.64 256-251.6992S755.7632 332.8 614.4 332.8z" p-id="3248" fill="#ffffff"></path><path d="M1130.496 145.664h-257.024C825.6 85.504 798.3104 0 705.9456 0h-183.296c-92.16 0.1024-119.4496 85.6064-167.3216 145.664H98.304C44.2368 145.664 0 189.3376 0 242.688v684.1856C0 980.3264 44.2368 1024 98.304 1024h1032.192c54.0672 0 98.304-43.6736 98.304-97.0752V242.688c0-53.4016-44.2368-97.0752-98.304-97.0752zM614.4 877.0048c-163.3792 0-295.8336-130.816-295.8336-292.1984 0-161.3312 132.4544-292.1472 295.8336-292.1472 163.3792 0 295.8336 130.816 295.8336 292.1472 0 161.3824-132.4544 292.1984-295.8336 292.1984z" p-id="3249" fill="#ffffff"></path></svg>