<?xml version="1.0" encoding="utf-8"?>
<!-- Generator: Adobe Illustrator 21.0.0, SVG Export Plug-In . SVG Version: 6.00 Build 0)  -->
<svg version="1.1" id="图层_1" xmlns="http://www.w3.org/2000/svg" xmlns:xlink="http://www.w3.org/1999/xlink" x="0px" y="0px"
	 viewBox="0 0 32 32" style="enable-background:new 0 0 32 32;" xml:space="preserve">
<style type="text/css">
	.st0{fill:#4E7648;}
</style>
<path class="st0" d="M27.3,4.1C24.4,1.5,20.4,0,16,0C11.6,0,7.6,1.5,4.7,4.1C-0.8,8.9-1.5,16.5,2.8,22c1.7,2.3,4.2,4,7.1,5.1
	l5.1,4.5c0.5,0.5,1.4,0.5,2,0l5.1-4.5c2.9-1.1,5.4-2.8,7.1-5.1C33.6,16.5,32.7,8.9,27.3,4.1z M16.1,24.1c-0.8,0-1.4-0.6-1.4-1.3
	c0-0.7,0.6-1.3,1.4-1.3c0.8,0,1.4,0.6,1.4,1.3C17.5,23.5,16.9,24.1,16.1,24.1z M22.4,11.5c-0.2,1.1-0.8,2.2-1.7,3.1
	c-0.4,0.4-0.9,0.7-1.4,1c-0.5,0.2-0.9,0.4-1.2,0.7c-0.3,0.3-0.5,0.9-0.5,1.7c0,0.7-0.7,1.3-1.5,1.3c-0.8,0-1.4-0.5-1.4-1.3
	c0-1.5,0.5-2.5,1.1-3.3c0.6-0.7,1.4-1.1,2.1-1.5c0.3-0.1,0.6-0.3,0.8-0.5c0.5-0.4,0.8-1,0.9-1.5c0.1-0.6-0.1-1.2-0.4-1.7
	c-0.2-0.3-0.4-0.5-0.7-0.8c-0.7-0.6-1.5-0.9-2.4-0.9c-0.5,0-0.9,0.1-1.4,0.3c-0.4,0.1-0.8,0.3-1.1,0.7c-0.6,0.5-1,1.2-1,2.1
	c0,0.7-0.6,1.2-1.4,1.2c-0.8,0-1.4-0.5-1.4-1.3c0-1.6,0.8-2.9,1.8-3.9c0.6-0.5,1.4-0.9,2.1-1.2c0.8-0.3,1.6-0.5,2.5-0.5
	c1.5,0,3.1,0.5,4.4,1.6c0.5,0.4,0.8,0.9,1.1,1.3C22.3,9.2,22.5,10.4,22.4,11.5z"/>
</svg>
