<?xml version="1.0" encoding="utf-8"?>
<!-- Generator: Adobe Illustrator 21.0.0, SVG Export Plug-In . SVG Version: 6.00 Build 0)  -->
<svg version="1.1" id="图层_1" xmlns="http://www.w3.org/2000/svg" xmlns:xlink="http://www.w3.org/1999/xlink" x="0px" y="0px"
	 viewBox="0 0 32 32" style="enable-background:new 0 0 32 32;" xml:space="preserve">
<style type="text/css">
	.st0{fill:#4E7648;}
</style>
<path class="st0" d="M18.8,0.2c1.6,0.1,3.2,0.5,5.6,1.5c5.7,2.4,10.1,8.6,6.2,14.7C27.4,21.3,17.2,31.3,16,32
	C14.4,31,5.1,21.4,2.4,17.6C-3.1,9.9,1.2,2.8,12.5,0.3C14.4-0.1,16.5-0.1,18.8,0.2L18.8,0.2z M26.7,12c0-4.4-4.8-8.1-10.7-8.1
	c-5.8,0-10.6,3.6-10.7,8c0,4.5,4.8,8.1,10.6,8.1C21.9,20.1,26.7,16.5,26.7,12L26.7,12z M21.3,11.9c0,2.2-2.3,4-5.2,4.1
	c-3,0.1-5.5-1.8-5.5-4c0-2.2,2.4-4,5.3-4C18.9,8,21.3,9.7,21.3,11.9L21.3,11.9z"/>
</svg>
