<?xml version="1.0" encoding="utf-8"?>
<!-- Generator: Adobe Illustrator 21.0.0, SVG Export Plug-In . SVG Version: 6.00 Build 0)  -->
<svg version="1.1" id="图层_1" xmlns="http://www.w3.org/2000/svg" xmlns:xlink="http://www.w3.org/1999/xlink" x="0px" y="0px"
	 viewBox="0 0 60 60" style="enable-background:new 0 0 60 60;" xml:space="preserve">
<style type="text/css">
	.st0{fill:none;stroke:#5B7710;stroke-width:3;stroke-miterlimit:10;}
	.st1{fill:#5B7710;}
</style>
<polyline class="st0" points="16.8,36.8 15.1,34.7 13.6,32.2 12.9,30.4 12.5,28.9 12.2,27.5 12.1,26.8 12,26 12,24.7 12,23.6 
	12.1,22.9 12.2,22.1 12.2,21.6 12.4,20.8 12.5,20.4 12.7,19.7 12.9,19 13.1,18.5 13.4,17.7 13.6,17.3 13.8,16.8 14.2,16.2 
	14.4,15.8 14.7,15.4 14.9,15 15.4,14.2 15.9,13.6 16.3,13.1 16.8,12.6 17.2,12.2 17.7,11.7 18.3,11.2 18.8,10.7 19.5,10.3 20.2,9.8 
	20.8,9.4 21.4,9.1 22.1,8.8 22.7,8.5 23.3,8.3 24,8 24.5,7.8 25.3,7.6 26.1,7.5 27,7.3 27.8,7.2 28.5,7.1 29.6,7.1 30.9,7.2 
	31.7,7.2 32.6,7.4 33.6,7.6 34.8,7.9 35.8,8.2 36.6,8.6 38,9.2 38.9,9.8 39.8,10.4 40.7,11.1 41.3,11.6 42.2,12.5 43,13.3 
	43.7,14.2 44,14.6 44.4,15.2 45.2,16.6 45.7,17.6 46.1,18.7 46.4,19.5 46.7,20.4 46.8,21.3 47,22.5 47.1,23.2 47.2,24.2 47.2,25.2 
	47.1,26.3 47.1,26.8 46.9,27.6 46.8,28.3 46.6,29 46.5,29.7 46.2,30.6 46,31.2 45.7,31.8 45.3,32.5 45,33.2 44.6,34 44.1,34.7 
	43.8,35.1 43.4,35.6 43,36.1 42.4,36.8 "/>
<g>
	<ellipse class="st1" cx="42.3" cy="36.9" rx="1" ry="0.9"/>
	<path class="st1" d="M42.3,36.5c0.3,0,0.5,0.2,0.5,0.4s-0.2,0.4-0.5,0.4s-0.5-0.2-0.5-0.4S42,36.5,42.3,36.5 M42.3,35.5
		c-0.9,0-1.5,0.6-1.5,1.4c0,0.7,0.7,1.4,1.5,1.4s1.5-0.6,1.5-1.4S43.1,35.5,42.3,35.5L42.3,35.5z"/>
</g>
<g>
	<ellipse class="st1" cx="17" cy="37" rx="1" ry="0.9"/>
	<path class="st1" d="M17,36.7c0.3,0,0.5,0.2,0.5,0.4s-0.2,0.4-0.5,0.4s-0.5-0.2-0.5-0.4S16.7,36.7,17,36.7 M17,35.7
		c-0.9,0-1.5,0.6-1.5,1.4c0,0.7,0.7,1.4,1.5,1.4s1.5-0.6,1.5-1.4S17.9,35.7,17,35.7L17,35.7z"/>
</g>
</svg>
