<?xml version="1.0" encoding="utf-8"?>
<!-- Generator: Adobe Illustrator 21.0.0, SVG Export Plug-In . SVG Version: 6.00 Build 0)  -->
<svg version="1.1" id="图层_1" xmlns="http://www.w3.org/2000/svg" xmlns:xlink="http://www.w3.org/1999/xlink" x="0px" y="0px"
	 viewBox="0 0 106 156" style="enable-background:new 0 0 106 156;" xml:space="preserve">
<style type="text/css">
	.st0{fill:#D3CFCF;}
	.st1{fill:#FFFFFF;}
	.st2{fill:#C1CBD7;}
	.st3{fill:#96A48B;}
</style>
<path class="st0" d="M105.5,92.2c-1.1,10.4-7.4,25.2-19.5,33c-8.2,5.3-14.2,4.3-20.7,11.7c-7.7,8.8-7,19.3-10.3,19.3
	c-3.2,0.1-3-10.3-11.1-19.3c-6.2-6.9-11.3-6.5-18.7-11.3c-12.1-8-18.8-22.8-20-33.4C2.7,68.9,23.6,36.7,55.9,37
	C87.7,37.3,108,68.8,105.5,92.2z"/>
<g>
	<path class="st1" d="M52.4,153.8c-0.4-0.8-1-2.3-1.4-3.6c-1.4-3.8-3.4-9.6-8.1-14.9c-4.1-4.6-7.8-6.2-11.7-8
		c-2.3-1-4.7-2.1-7.4-3.9c-11.6-7.7-18-22.2-19.1-32.3C3.3,79,8.7,64.2,18.3,53.5c9.3-10.4,21.6-16.1,34.5-16.1l0.4,0
		c12.9,0.1,25.1,5.8,34.2,16.1c9.6,10.8,14.8,25.2,13.5,37.6c-1.1,10.6-7.3,24.6-18.6,31.9c-3.1,2-5.9,3.1-8.5,4.1
		c-4.3,1.6-8.3,3.2-12.5,8.1c-4.6,5.3-6.4,11.1-7.6,15C53.3,151.5,52.8,153,52.4,153.8z"/>
	<path class="st2" d="M52.8,39.5L52.8,39.5l0.4,0c12.3,0.1,24,5.6,32.7,15.5c9.3,10.4,14.2,24.2,13,36c-1,9.8-7,23.5-17.7,30.5
		c-2.9,1.9-5.6,2.9-8.2,3.9c-4.3,1.7-8.8,3.4-13.3,8.6c-4.2,4.8-6.1,10-7.4,14c-1.4-3.9-3.6-9.1-7.9-13.9c-4.4-5-8.4-6.7-12.4-8.5
		c-2.2-1-4.6-2-7.1-3.7c-11-7.3-17.2-21.2-18.2-30.9c-1.3-11.6,3.9-25.8,13.2-36.1C28.7,44.9,40.4,39.5,52.8,39.5 M52.8,35.5
		c-32.1,0-52.7,32.4-50.2,55.9c1.2,10.7,7.9,25.7,20,33.8c7.4,4.9,12.6,4.5,18.7,11.5c8.1,9.1,7.8,19.5,11,19.5c0,0,0,0,0,0
		c3.3-0.1,2.5-10.6,10.3-19.6c6.5-7.5,12.5-6.5,20.7-11.8c12.1-7.9,18.4-22.8,19.5-33.4c2.5-23.7-17.9-55.6-49.6-55.9
		C53.1,35.5,53,35.5,52.8,35.5L52.8,35.5z"/>
</g>
<g>
	<path class="st3" d="M102,73c-0.9-3.5-2.6-8.7-6.4-14.4c-6.6-9.8-15.5-15.1-19-16.9c-7.1-3.6-15.2-5.5-23.6-5.5
		c-12.4,0-24.5,4.1-33.1,11.2C13.4,52.6,9.4,59.1,9.4,59.1C6,64.5,4.5,69.3,3.6,72.7c-1.9-7.5-3.7-24.4,4.7-40.9
		c3.2-6.3,15.6-26.9,39.6-29.4c1.5-0.2,3.1-0.2,4.6-0.2c25.7,0,41.6,23,42.3,24C106.9,44.3,104.3,65,102,73z"/>
	<path class="st2" d="M52.5,4.2c24.7,0,40,22.2,40.6,23.1c9,13.5,9.6,28.5,8.4,38.1c-1-2.4-2.4-5.1-4.3-7.9
		C90.7,47.7,82,42.3,77.5,39.9c-7.3-3.8-15.8-5.8-24.5-5.8c-12.9,0-25.4,4.2-34.4,11.7C12.3,50.9,8.2,57.3,7.7,58l0,0
		c-1.5,2.3-2.6,4.5-3.5,6.6c-0.8-8.4,0-20.3,5.9-31.9c3.1-6,15.1-26,38.1-28.3C49.6,4.3,51.1,4.2,52.5,4.2L52.5,4.2 M52.5,0.2
		c-1.6,0-3.2,0.1-4.8,0.2C21.4,3.2,8.7,26.7,6.5,30.9C-5.1,53.6,1.9,78.1,3.9,78.2c0,0,0,0,0,0c1.1,0,1-8.2,7.2-18
		c0.2-0.4,4.1-6.5,10-11.3c8.2-6.7,19.8-10.7,31.9-10.7c7.7,0,15.5,1.7,22.7,5.3c3,1.5,11.7,6.5,18.3,16.3
		c6.6,9.8,6.4,18.2,7.7,18.2c0,0,0,0,0,0c2.4-0.2,10.9-28.8-5.2-52.9C95.4,23.6,79.2,0.2,52.5,0.2L52.5,0.2z"/>
</g>
</svg>
