<?xml version="1.0" standalone="no"?><!DOCTYPE svg PUBLIC "-//W3C//DTD SVG 1.1//EN" "http://www.w3.org/Graphics/SVG/1.1/DTD/svg11.dtd"><svg t="1535940650916" class="icon" style="" viewBox="0 0 1024 1024" version="1.1" xmlns="http://www.w3.org/2000/svg" p-id="2523" xmlns:xlink="http://www.w3.org/1999/xlink" width="200" height="200"><defs><style type="text/css"></style></defs><path d="M290.99804445 23.90471112c9.58767408 0 19.05398518 3.51952592 26.57848888 10.55857777l434.35804445 408.6290963c0.60681482 0.48545185 1.09226667 1.09226667 1.69908147 1.69908148 13.95674075 14.80628148 21.35988148 34.46708148 20.75306667 55.46287408 0.60802845 20.99579259-6.79632592 40.65659259-20.75306667 55.46287407-0.12136297 0.24272592-0.36408889 0.36408889-0.48545184 0.60681482l-418.82358519 426.10536295c-15.05022103 15.29173333-39.56432592 15.53445925-54.97742222 0.48545186-15.29173333-15.05022103-15.53445925-39.56432592-0.48545185-54.97742223l417.85146785-425.86263703c-0.12136297-1.21362963-0.12136297-2.54862222 0-3.76225185v-0.60802845l-432.29487408-406.68728889c-15.65582222-14.68491852-16.384-39.3216-1.69908147-54.85605925 7.64586667-8.13131852 17.96171852-12.25765925 28.27757037-12.25765926z" p-id="2524" fill="#4f7948"></path></svg>