<?xml version="1.0" standalone="no"?><!DOCTYPE svg PUBLIC "-//W3C//DTD SVG 1.1//EN" "http://www.w3.org/Graphics/SVG/1.1/DTD/svg11.dtd"><svg t="1535771977482" class="icon" style="" viewBox="0 0 1024 1024" version="1.1" xmlns="http://www.w3.org/2000/svg" p-id="1767" xmlns:xlink="http://www.w3.org/1999/xlink" width="200" height="200"><defs><style type="text/css"></style></defs><path d="M997.142857 169.714286q5.714286 5.714286 5.714286 13.142857t-5.714286 13.142857l-80.571429 80.571429q-16 16-38.857143 16l-768 0q-14.857143 0-25.714286-10.857143t-10.857143-25.714286l0-146.285714q0-14.857143 10.857143-25.714286t25.714286-10.857143l329.142857 0 0-36.571429q0-14.857143 10.857143-25.714286t25.714286-10.857143l73.142857 0q14.857143 0 25.714286 10.857143t10.857143 25.714286l0 36.571429 292.571429 0q22.857143 0 38.857143 16zm-558.285714 525.142857l146.285714 0 0 292.571429q0 14.857143-10.857143 25.714286t-25.714286 10.857143l-73.142857 0q-14.857143 0-25.714286-10.857143t-10.857143-25.714286l0-292.571429zm475.428571-256q14.857143 0 25.714286 10.857143t10.857143 25.714286l0 146.285714q0 14.857143-10.857143 25.714286t-25.714286 10.857143l-768 0q-22.857143 0-38.857143-16l-80.571429-80.571429q-5.714286-5.714286-5.714286-13.142857t5.714286-13.142857l80.571429-80.571429q16-16 38.857143-16l292.571429 0 0-109.714286 146.285714 0 0 109.714286 329.142857 0z" p-id="1768" fill="#ffffff"></path></svg>