<?xml version="1.0" standalone="no"?><!DOCTYPE svg PUBLIC "-//W3C//DTD SVG 1.1//EN" "http://www.w3.org/Graphics/SVG/1.1/DTD/svg11.dtd"><svg t="1537626254668" class="icon" style="" viewBox="0 0 1024 1024" version="1.1" xmlns="http://www.w3.org/2000/svg" p-id="4797" xmlns:xlink="http://www.w3.org/1999/xlink" width="200" height="200"><defs><style type="text/css"></style></defs><path d="M384.831 576.467l-121.96 51.764 22.959 54.11c3.175 7.464 8.503 9.616 15.983 6.44l98.155-41.658c3.547-1.513 6.382-4.11 8.133-7.642 1.9-4.275-1.143-16.919-8.726-38.081l20.791-1.855c8.163 25.793 11.086 41.954 8.875 48.231-2.894 6.337-8.177 11.368-16.087 15.182L304.38 709.053c-16.725 7.094-28.657 1.96-36.018-15.36l-43.408-102.296 18.877-8.014 11.442 26.95 102.875-43.675-19.872-46.807-129.825 55.103-7.599-17.898 148.91-63.22 35.07 82.631z m71.012-116.736l49.39-20.97-7.866-18.49 18.7-7.925 7.85 18.49 52.907-22.468 7.598 17.913-52.907 22.454 6.59 15.538 45.441-19.293 24.799 58.427-46.228 19.634c5.283 16.8 7.761 30.84 7.153 42 22.973 1.632 46.673-2.167 71.175-11.176l3.072 19.827c-27.5 9.587-53.663 13.03-78.774 10.21-6.366 14.544-20.123 28.05-41.227 40.723l-15.241-13.505c17.824-9.409 29.681-19.782 35.44-30.824a178.235 178.235 0 0 1-41.065-15.775l10.196-15.924c11.397 6.085 23.285 10.537 35.558 13.223-0.03-8.8-1.588-19.055-5.165-30.765L500.35 549.25l-24.784-58.413 43.854-18.625-6.589-15.538-49.39 20.955-7.598-17.898z m127.896 34.386l-10.685-25.17-27.93 11.858 10.685 25.17 27.93-11.858z m-46.614 19.797L526.44 488.73l-26.372 11.19 10.685 25.184 26.372-11.19z m-94.356 22.172a427.557 427.557 0 0 1-8.49 27.055l-14.617-17.483c9.587-31.002 12.48-63.562 8.593-97.903l21.222 0.742c1.617 16.963 1.528 33.718-0.104 50.666l56.201 132.378-18.892 8.014-43.928-103.469z m213.63-99.03l12.778 30.11 45.249-19.218-12.763-30.097-45.264 19.204z m19.144 47.83c8.163 25.793 9.572 49.345 4.215 70.641l-19.783-6.678c4.616-21.934 1.618-45.961-9.008-72.095l-40.915-96.39 150.884-64.052L823.8 464.436c6.262 14.751 1.78 25.496-13.179 31.833l-22.632 9.602-12.674-16.206a306.161 306.161 0 0 0 21.86-8.118c6.293-2.671 7.97-8.014 4.705-15.701l-12.436-29.31-48.781 20.717 23.79 56.053-18.878 8.014-23.804-56.053-46.229 19.62zM782.1 419.232l-12.778-30.097-48.781 20.702 12.763 30.097 48.796-20.702z m-20.035-47.208l-12.54-29.518-48.782 20.717 12.526 29.503 48.78-20.702z m-80.199-0.787l-45.263 19.204 12.54 29.503 45.249-19.204-12.526-29.503z" fill="#ffffff" p-id="4798"></path><path d="M513.484 1021.032c-280.309 0-507.548-227.24-507.548-507.548 0-280.309 227.24-507.548 507.548-507.548 280.309 0 507.548 227.24 507.548 507.548 0 280.309-227.24 507.548-507.548 507.548z m0-17.809c270.47 0 489.74-219.27 489.74-489.739s-219.27-489.74-489.74-489.74-489.74 219.27-489.74 489.74 219.27 489.74 489.74 489.74z" fill="#ffffff" p-id="4799"></path><path d="M513.484 967.606c-250.806 0-454.122-203.316-454.122-454.122S262.678 59.362 513.484 59.362s454.122 203.316 454.122 454.122S764.29 967.606 513.484 967.606z m0-17.809c240.967 0 436.313-195.346 436.313-436.313S754.451 77.171 513.484 77.171 77.171 272.518 77.171 513.484s195.347 436.313 436.313 436.313z" fill="#ffffff" p-id="4800"></path><path d="M372.335 750.74l9.112-15.285a256.95 256.95 0 0 0 132.037 36.255c124.587 0 230.771-88.865 253.7-209.816l17.497 3.31c-24.517 129.335-138.018 224.315-271.197 224.315-50.384 0-98.809-13.52-141.149-38.779z m322.1-445.707l-11.68 13.431a257.143 257.143 0 0 0-169.27-63.206c-138.256 0-251.83 108.9-257.96 246.517l-17.809-0.787c6.59-147.13 127.986-263.539 275.768-263.539 67.42 0 131.087 24.265 180.951 67.584zM175.119 442.25l-20.925 11.011 3.992-23.315-16.948-16.517 23.418-3.399 10.463-21.207 10.462 21.222L209 413.43l-16.948 16.517 4.007 23.3zM281.97 264.161l-20.925 11.012 3.992-23.315-16.948-16.517 23.418-3.399 10.463-21.207 10.463 21.222 23.418 3.384-16.948 16.517 4.007 23.3z m195.896-89.043L456.94 186.13l3.993-23.315-16.948-16.518 23.418-3.398 10.463-21.207 10.462 21.222 23.419 3.383-16.948 16.518 4.007 23.3z m195.895 53.426l-20.925 11.012 3.992-23.315-16.948-16.517 23.419-3.399 10.462-21.207 10.463 21.222 23.418 3.384-16.948 16.517 4.007 23.3zM848.288 668.42l-20.926 11.011 3.992-23.314-16.948-16.518 23.419-3.398 10.463-21.207 10.462 21.222 23.419 3.383-16.948 16.518 4.007 23.3zM730.75 807.328l-20.925 11.011 3.992-23.314-16.948-16.518 23.419-3.398L730.75 753.9l10.463 21.222 23.418 3.384-16.948 16.518 4.007 23.3z m-163.84 80.139l-20.925 11.011 3.992-23.314-16.948-16.518 23.419-3.398 10.462-21.207 10.463 21.222 23.418 3.383-16.948 16.518 4.007 23.3z m-178.087-23.152l-20.925 11.012 3.992-23.314-16.948-16.518 23.419-3.399 10.462-21.207 10.463 21.222 23.418 3.384-16.948 16.518 4.007 23.3z" fill="#ffffff" p-id="4801"></path></svg>