<?xml version="1.0" encoding="utf-8"?>
<!-- Generator: Adobe Illustrator 21.0.0, SVG Export Plug-In . SVG Version: 6.00 Build 0)  -->
<svg version="1.1" id="图层_1" xmlns="http://www.w3.org/2000/svg" xmlns:xlink="http://www.w3.org/1999/xlink" x="0px" y="0px"
	 viewBox="0 0 200 200" style="enable-background:new 0 0 200 200;" xml:space="preserve">
<style type="text/css">
	.st0{fill:url(#SVGID_1_);}
	.st1{fill:#FF556E;}
	.st2{fill:#FF5F71;}
	.st3{fill:#FF6974;}
	.st4{fill:#FF7377;}
	.st5{fill:#FF7E7A;}
	.st6{fill:#FF887D;}
	.st7{fill:#FF9280;}
	.st8{fill:#EF4868;}
	.st9{fill:#FFC7C7;}
	.st10{fill:#FFFFFF;}
</style>
<linearGradient id="SVGID_1_" gradientUnits="userSpaceOnUse" x1="9.881970e-03" y1="99.3048" x2="200.2" y2="99.3048">
	<stop  offset="5.618000e-03" style="stop-color:#FBCF00"/>
	<stop  offset="0.2528" style="stop-color:#FFFCD1"/>
	<stop  offset="0.2957" style="stop-color:#FAF4C0"/>
	<stop  offset="0.3809" style="stop-color:#EFDD93"/>
	<stop  offset="0.4991" style="stop-color:#DCBA4B"/>
	<stop  offset="0.5955" style="stop-color:#CB9B0C"/>
	<stop  offset="0.7957" style="stop-color:#E8CD67"/>
	<stop  offset="0.8708" style="stop-color:#F3E18B"/>
	<stop  offset="1" style="stop-color:#FFFCD1"/>
</linearGradient>
<path class="st0" d="M139.3,93.1c-6.7,0-12.1-5.3-12.1-11.9s5.4-11.9,12.1-11.9s12.1,5.3,12.1,11.9C151.4,87.8,146,93.1,139.3,93.1z
	 M184.9,76.7l-2.9-0.1c-3.9-10.7-10.3-20.7-18.7-29.2c-0.5-1.3-0.6-3.7-0.4-5.3l2.4-19.5c0-0.2,0.1-0.5,0.1-0.7
	c0-5.3-3.2-8.9-5.9-10.3c-4.4-2.3-9.3-0.9-12.3,1.1L132.7,21c-2.3,1.4-5.7,2.7-8,3.6c-9.6-3-19.5-4.6-29.7-4.6
	c-26.5,0-50.3,10-67,26c0.9-1.8,1.5-3.9,1.4-6c-0.1-2.5-1-4.8-2.5-6.6c-0.1-0.1-0.1-0.1-0.1-0.2c-0.1-0.2-0.3-0.3-0.4-0.4
	c-0.2-0.2-0.3-0.3-0.4-0.5c-0.1-0.1-0.2-0.1-0.2-0.1c-1.8-1.5-4-2.4-6.4-2.4h-0.1c-2.8,0-5.5,1.2-7.5,3.4c-0.9,1-1.6,2.2-2.1,3.4
	c-0.5-0.9-1-1.8-1.4-3c-0.7-2.2-3.1-3.4-5.3-2.7c-2.2,0.7-3.5,3-2.8,5.2c2.6,8.1,8.2,11.5,11.2,12.8c1.1,3,3.2,6.6,6.5,8.8
	c-9,12.6-14.3,27.5-14.3,43.6c0,22.3,10.4,43.6,28.5,58.9l0.2,14.2c0,7.6,6.3,13.8,14,13.8h13.2c5.7,0,10.6-3.4,12.8-8.3
	c7.4,1.7,15,2.6,22.7,2.6c8.5,0,16.9-1.1,25.1-3.2c2,5.2,7.1,8.9,13,8.9h13.2c7.7,0,14-6.2,14-13.7l0.2-16.6
	c10-9.1,17.5-20.2,21.7-32.3l2.5,0.1h0.1c3.9,0,7.5-1.5,10.4-4.3c3.1-3,4.9-7.4,4.9-11.9l0.1-16.5C200.1,84,193.3,76.7,184.9,76.7
	L184.9,76.7z"/>
<path class="st1" d="M56.4,84.3h25.7c2.7,0,4.4,2.9,3.1,5.3l-6.3,11.8c-0.7,1.3,0.2,2.9,1.8,2.9h5.9c2.1,0,3,2.6,1.4,3.9l-31,26.6
	c-2,1.7-5.1-0.1-4.4-2.7l4.3-17.9c0.2-1.2-0.7-2.2-1.9-2.2h-3.3c-1.1,0-2-0.9-1.9-2.1l1.6-20.9C51.5,86.4,53.7,84.3,56.4,84.3z"/>
<path class="st1" d="M85.2,89.6c1.3-2.4-0.4-5.3-3.1-5.3h-6.1C79.5,85.5,82.6,87.3,85.2,89.6L85.2,89.6z M56.4,84.3
	c-2.7,0-4.9,2.1-5.1,4.7l0,0.1c2.5-2.1,5.4-3.8,8.5-4.8H56.4z M57.1,134.8l2.4-2c-2.2-0.8-4.3-1.9-6.2-3.2l-0.6,2.5
	c-0.2,0.7-0.1,1.4,0.3,2c0.8,0.5,1.5,1,2.4,1.4C55.9,135.5,56.5,135.3,57.1,134.8z"/>
<path class="st2" d="M66.8,85.3c6.6,0,12.6,2.9,16.6,7.6l1.7-3.2c-2.6-2.4-5.7-4.2-9.1-5.4H59.8c-3.2,1.1-6.1,2.7-8.5,4.8l-0.2,2.7
	C55.1,87.8,60.7,85.3,66.8,85.3z M63.5,129.3c-3.4-0.5-6.6-1.8-9.3-3.7l-1,4c1.9,1.3,4,2.4,6.2,3.2L63.5,129.3z"/>
<path class="st3" d="M65.7,87.6c6.7,0,12.6,3.5,15.8,8.8l1.9-3.6c-4-4.6-10-7.6-16.6-7.6c-6.2,0-11.7,2.5-15.7,6.6l-0.2,3.1
	C54.3,90.5,59.6,87.6,65.7,87.6z M83.2,112.3l4.8-4.1c1.6-1.3,0.6-3.9-1.4-3.9h-2.4c0.1,0.6,0.1,1.3,0.1,1.9
	C84.3,108.4,83.9,110.4,83.2,112.3z M69.1,124.5c-1.1,0.2-2.3,0.3-3.4,0.3c-3.9,0-7.6-1.2-10.6-3.3l-1,4c2.7,1.9,5.9,3.2,9.3,3.7
	L69.1,124.5L69.1,124.5z"/>
<path class="st4" d="M49.8,109.9c-0.1,1,0.6,1.8,1.5,2c-0.6-1.2-1.1-2.4-1.3-3.7C49.9,108.2,49.8,109.9,49.8,109.9z M64.6,90
	c6.9,0,12.8,4.7,14.5,11.1l2.4-4.5c-3.3-5.3-9.1-8.8-15.8-8.8c-6.1,0-11.5,2.9-14.8,7.4l-0.3,4.6C52.7,94,58.2,90,64.6,90z
	 M69.1,124.5l14.1-12.1c0.7-1.9,1-4,1-6.1c0-0.6,0-1.3-0.1-1.9h-3.5c-0.4,0-0.8-0.1-1.1-0.3c0,0.3,0,0.7,0,1c0,8.3-6.7,15-15,15
	c-3.1,0-6.1-1-8.5-2.6l-1,4c3,2.1,6.6,3.3,10.6,3.3C66.9,124.8,68,124.7,69.1,124.5z"/>
<path class="st5" d="M79.6,105c0-0.3,0-0.7,0-1c-0.8-0.5-1.2-1.7-0.7-2.6l0.2-0.4C77.3,94.6,71.5,90,64.6,90c-6.4,0-11.9,4-14.1,9.7
	l-0.6,8.6c0.3,1.3,0.7,2.6,1.3,3.7c0.1,0,0.3,0,0.4,0H55c0.1,0,0.3,0,0.4,0c-2.1-2.1-3.5-5-3.5-8.2c0-6.4,5.2-11.5,11.5-11.5
	S75,97.4,75,103.8c0,6.4-5.2,11.5-11.5,11.5c-2.5,0-4.8-0.8-6.7-2.1c0.1,0.3,0.2,0.7,0.1,1l-0.8,3.3c2.4,1.6,5.3,2.6,8.5,2.6
	C72.9,120,79.6,113.3,79.6,105L79.6,105z"/>
<path class="st6" d="M75,103.8c0-6.4-5.2-11.5-11.5-11.5s-11.5,5.2-11.5,11.5c0,3.2,1.3,6.1,3.5,8.2c0.6,0.1,1.1,0.6,1.4,1.1
	c1.9,1.3,4.2,2.1,6.7,2.1C69.8,115.3,75,110.1,75,103.8z M54.3,102.6c0-4.4,3.6-8,8-8s8,3.6,8,8c0,4.4-3.6,8-8,8
	S54.3,107,54.3,102.6z"/>
<path class="st7" d="M54.3,102.6c0,4.4,3.6,8,8,8c4.4,0,8-3.6,8-8c0,0,0,0,0,0c0-4.4-3.6-8-8-8S54.3,98.2,54.3,102.6
	C54.3,102.6,54.3,102.6,54.3,102.6z"/>
<path class="st8" d="M55.3,136c-0.6,0-1.2-0.2-1.7-0.5c-1.2-0.8-1.8-2.2-1.5-3.6l4.3-17.9c0-0.4-0.1-0.8-0.3-1.1
	c-0.3-0.3-0.6-0.5-1-0.5h-3.3c-0.7,0-1.3-0.3-1.8-0.8c-0.5-0.5-0.7-1.2-0.7-1.9L50.7,89c0.1-1.4,0.7-2.8,1.8-3.7
	c1.1-1,2.4-1.5,3.9-1.5h25.7c1.5,0,2.8,0.8,3.5,2c0.7,1.3,0.8,2.8,0,4.1l-6.3,11.8c-0.2,0.4-0.2,1,0,1.4c0.3,0.4,0.7,0.7,1.2,0.7
	h5.9c1.2,0,2.2,0.7,2.6,1.8c0.4,1.1,0.1,2.3-0.8,3.1l-31,26.6C56.8,135.8,56.1,136,55.3,136z M56.4,84.9c-1.2,0-2.3,0.4-3.1,1.2
	c-0.8,0.8-1.4,1.9-1.4,3L50.3,110c0,0.4,0.1,0.7,0.4,1c0.3,0.3,0.6,0.4,1,0.4H55c0.7,0,1.4,0.3,1.9,0.9s0.7,1.3,0.6,2l0,0l-4.3,17.9
	c-0.3,1.1,0.3,2,1,2.4c0.7,0.4,1.7,0.6,2.6-0.2l31-26.6c0.7-0.6,0.7-1.3,0.5-1.8s-0.7-1.1-1.6-1.1h-5.9c-0.9,0-1.7-0.5-2.2-1.2
	c-0.5-0.8-0.5-1.7-0.1-2.5l6.3-11.8c0.5-0.9,0.5-2,0-3c-0.5-0.9-1.5-1.5-2.6-1.5C82.2,84.9,56.4,84.9,56.4,84.9z"/>
<path class="st9" d="M75.2,100.8l-2.4,4.6c-0.2,0.4,0.1,0.9,0.6,0.9h3.9c0.8,0,1.1,0.9,0.6,1.5l-8.7,8.6c-0.3,0.3-0.8,0-0.7-0.4
	l1.7-4.6c0.1-0.4-0.1-0.8-0.6-0.8h-3.2c-0.9,0-1.6-0.8-1.4-1.7l1.5-8.2c0.2-1,1.1-1.8,2.1-1.8l5.3,0C75,98.8,75.7,99.9,75.2,100.8
	L75.2,100.8z"/>
<path class="st10" d="M54.8,98.3c-0.6,0-1.1-0.6-1-1.2l0.5-7.7c0-0.6,0.6-1.1,1.2-1c0.6,0,1.1,0.6,1,1.2l-0.5,7.7
	C55.9,97.9,55.4,98.3,54.8,98.3z M54.5,102.6c-0.6,0-1.1-0.6-1-1.2l0-0.7c0-0.6,0.6-1.1,1.2-1c0.6,0,1.1,0.6,1,1.2l0,0.7
	C55.6,102.2,55.1,102.6,54.5,102.6z"/>
</svg>
