<?xml version="1.0" encoding="utf-8"?>
<!-- Generator: Adobe Illustrator 21.0.0, SVG Export Plug-In . SVG Version: 6.00 Build 0)  -->
<svg version="1.1" id="图层_1" xmlns="http://www.w3.org/2000/svg" xmlns:xlink="http://www.w3.org/1999/xlink" x="0px" y="0px"
	 viewBox="0 0 200 200" style="enable-background:new 0 0 200 200;" xml:space="preserve">
<style type="text/css">
	.st0{fill:#8A8A8A;}
</style>
<path class="st0" d="M139.3,93.1c-6.7,0-12.1-5.3-12.1-11.9c0-6.6,5.4-11.9,12.1-11.9c6.7,0,12.1,5.3,12.1,11.9
	C151.4,87.8,146,93.1,139.3,93.1z M184.9,76.7l-2.9-0.1c-3.9-10.7-10.3-20.7-18.7-29.2c-0.5-1.3-0.6-3.7-0.4-5.3l2.4-19.5
	c0-0.2,0.1-0.5,0.1-0.7c0-5.3-3.2-8.9-5.9-10.3c-4.4-2.3-9.3-0.9-12.3,1.1l-14.5,8.3c-2.3,1.4-5.7,2.7-8,3.6
	C115.1,21.6,105.2,20,95,20C68.5,20,44.7,30,28,46c0.9-1.8,1.5-3.9,1.4-6c-0.1-2.5-1-4.8-2.5-6.6c-0.1-0.1-0.1-0.1-0.1-0.2
	c-0.1-0.2-0.3-0.3-0.4-0.4c-0.2-0.2-0.3-0.3-0.4-0.5c-0.1-0.1-0.2-0.1-0.2-0.1c-1.8-1.5-4-2.4-6.4-2.4h-0.1c-2.8,0-5.5,1.2-7.5,3.4
	c-0.9,1-1.6,2.2-2.1,3.4c-0.5-0.9-1-1.8-1.4-3c-0.7-2.2-3.1-3.4-5.3-2.7c-2.2,0.7-3.5,3-2.8,5.2c2.6,8.1,8.2,11.5,11.2,12.8
	c1.1,3,3.2,6.6,6.5,8.8c-9,12.6-14.3,27.5-14.3,43.6c0,22.3,10.4,43.6,28.5,58.9l0.2,14.2c0,7.6,6.3,13.8,14,13.8h13.2
	c5.7,0,10.6-3.4,12.8-8.3c7.4,1.7,15,2.6,22.7,2.6c8.5,0,16.9-1.1,25.1-3.2c2,5.2,7.1,8.9,13,8.9h13.2c7.7,0,14-6.2,14-13.7
	l0.2-16.6c10-9.1,17.5-20.2,21.7-32.3l2.5,0.1h0.1c3.9,0,7.5-1.5,10.4-4.3c3.1-3,4.9-7.4,4.9-11.9l0.1-16.5
	C200.1,84,193.3,76.7,184.9,76.7L184.9,76.7z"/>
</svg>
