<?xml version="1.0" encoding="utf-8"?>
<!-- Generator: Adobe Illustrator 21.0.0, SVG Export Plug-In . SVG Version: 6.00 Build 0)  -->
<svg version="1.1" id="图层_1" xmlns="http://www.w3.org/2000/svg" xmlns:xlink="http://www.w3.org/1999/xlink" x="0px" y="0px"
	 viewBox="0 0 220 220" style="enable-background:new 0 0 220 220;" xml:space="preserve">
<style type="text/css">
	.st0{fill:none;stroke:#4F7948;stroke-width:20;stroke-miterlimit:10;}
	.st1{fill:#4F7948;}
</style>
<path class="st0" d="M69.4,204.5c-4.5-3.6-28.1-22.8-31.4-56.3c-2.5-24.5,7.5-43.1,11.6-49.9c3.3-5.4,10.9-17.6,26-26.3
	c16.2-9.4,31.6-9.4,40.5-9.4c8.9,0.1,26.3,0.2,43.7,11.5c21.5,14,28.5,35.5,30.5,42.2c2.3,7.6,8.5,31.9-3.9,57.6
	c-8,16.5-20.1,26-26.3,30.3"/>
<g>
	<g>
		<path class="st1" d="M68.9,214.3c12.9,0,12.9-20,0-20C56.1,194.3,56,214.3,68.9,214.3L68.9,214.3z"/>
	</g>
</g>
<g>
	<g>
		<path class="st1" d="M159.9,214.2c12.9,0,12.9-20,0-20S147,214.2,159.9,214.2L159.9,214.2z"/>
	</g>
</g>
<path class="st1" d="M145.3,72.5H86.2L65.7,32.7c-5-0.4-9-3.7-9-7.9c0-4.4,4.4-7.9,9.8-7.9s9.8,3.6,9.8,7.9c0,1.7-0.7,3.2-1.8,4.5
	c3.5,4.4,9.6,7.4,16.5,7.4c9.2,0,16.8-5.1,19-11.9h0.7v-9c-2.9-1.4-4.9-3.9-4.9-6.8c0-4.4,4.4-8,9.9-8s9.8,3.6,9.8,7.9
	c0,2.9-2,5.5-4.9,6.8v9h0.7c2.2,6.8,9.8,11.9,19,11.9c7,0,13.1-3,16.5-7.4c-1.1-1.3-1.8-2.8-1.8-4.5c0-4.4,4.4-7.9,9.8-7.9
	c5.4,0,9.8,3.6,9.8,7.9c0,4.2-4,7.5-9,7.9L145.3,72.5z"/>
</svg>
